<?xml version="1.0" standalone="no"?>
<!DOCTYPE svg PUBLIC "-//W3C//DTD SVG 1.1//EN" "http://www.w3.org/Graphics/SVG/1.1/DTD/svg11.dtd" >
<svg xmlns="http://www.w3.org/2000/svg" xmlns:xlink="http://www.w3.org/1999/xlink" version="1.1">
<metadata>
Created by FontForge 20201107 at Wed Oct  9 18:44:52 2002
 By 
(c)2002 by Andrew Leman. Developed from vintage sources exclusively for the HPLHS.
</metadata>
<defs>
<font id="HeadlineTwoHPLHS" horiz-adv-x="401" >
  <font-face 
    font-family="Headline Two"
    font-weight="400"
    font-stretch="normal"
    units-per-em="1000"
    panose-1="0 0 4 0 0 0 0 0 0 0"
    ascent="800"
    descent="-200"
    x-height="543"
    cap-height="790"
    bbox="-46 -137 5120 972"
    underline-thickness="20"
    underline-position="-143"
    unicode-range="U+0020-2022"
  />
<missing-glyph horiz-adv-x="500" 
d="M63 0v800h375v-800h-375zM125 63h250v675h-250v-675z" />
    <glyph glyph-name=".notdef" horiz-adv-x="500" 
d="M63 0v800h375v-800h-375zM125 63h250v675h-250v-675z" />
    <glyph glyph-name=".null" horiz-adv-x="0" 
 />
    <glyph glyph-name="nonmarkingreturn" horiz-adv-x="146" 
 />
    <glyph glyph-name="space" unicode=" " horiz-adv-x="146" 
 />
    <glyph glyph-name="exclam" unicode="!" horiz-adv-x="135" 
d="M100 790q-10 -107 -13 -201q-2 -61 0 -174q1 -133 0 -217q-8 2 -15 2q-10 0 -22 -4.5t-15 -4.5q-11 0 -23 17q6 240 2 582h86zM86 4h-70v102l70 -7v-95z" />
    <glyph glyph-name="dollar" unicode="$" horiz-adv-x="329" 
d="M310 644l-1 -10q-18 -18 -59 -43q-22 31 -23 32q-15 17 -31 21q-6 -7 -2 -36l1 -185q61 -79 84 -118q41 -72 41 -132q0 -46 -23 -88q-29 -45 -104 -72q0 -26 -2 -76l-8 -6q-5 3 -12 3q-3 0 -10 -1t-10 -1q-11 0 -15 10l2 70q-4 4 -12 4t-11 1q-77 22 -108 95l1 10l53 48
q10 -2 15 -14q7 -18 9 -21q15 -16 23 -21q14 -11 28 -13l3 5q2 77 2 241q-1 1 -77 110q-39 90 -36 133q6 79 58 114q18 12 55 20l3 5l-2 60q7 8 22 7q30 -1 27 -2l4 -7q-3 -50 -2 -62q16 -2 47 -14q34 -16 70 -67zM142 512l-1 124q-13 -3 -23 -15q-14 -33 -8 -50
q5 -17 11 -35t18 -29zM229 176q-2 53 -33 92l-3 -3q0 -51 -2 -157l5 -2q36 21 33 70z" />
    <glyph glyph-name="parenleft" unicode="(" horiz-adv-x="254" 
d="M217 800l-2 -11q-119 -178 -117 -438q1 -161 77 -326q6 -2 5.5 -9.5t2.5 -9.5l29 -50q-1 -12 -11.5 -21.5t-21.5 -17.5q-14 0 -23 16l-14 26q-93 179 -103 337q-7 106 1 172q13 109 37 173q4 12 14 36q31 77 80 157q5 4 16 -2z" />
    <glyph glyph-name="parenright" unicode=")" horiz-adv-x="272" 
d="M213 565q21 -92 21 -189q0 -260 -138 -451q-5 -3 -10 -3q-4 0 -7.5 4t-17.5 14.5t-14 17.5q0 5 4 10q45 56 78 157q38 115 38 240q0 214 -106 419q-11 21 -8 27q6 3 16.5 16.5t19.5 13.5q3 0 7 -2q4 -9 47 -92q29 -57 42 -96q16 -33 28 -86z" />
    <glyph glyph-name="comma" unicode="," horiz-adv-x="118" 
d="M76 4l-68 -124l-2 226l70 -7v-95z" />
    <glyph glyph-name="hyphen" unicode="-" horiz-adv-x="246" 
d="M204 352l-12 -77h-158v75z" />
    <glyph glyph-name="hyphen" unicode="&#x2010;" horiz-adv-x="246" 
d="M204 352l-12 -77h-158v75z" />
    <glyph glyph-name="period" unicode="." horiz-adv-x="120" 
d="M76 4h-70v102l70 -7v-95z" />
    <glyph glyph-name="zero" unicode="0" horiz-adv-x="324" 
d="M260 75l-36 -52q-22 -27 -51 -32q-11 -2 -21 -2q-46 0 -72 37q-17 25 -33 82q-18 65 -27 83q-7 22 -8 76q0 48 -12 74q-2 -5 1 -9l-1 162l30 166q25 97 90 130q8 1 16 1q25 0 80 -31q69 -145 69 -376q0 -138 -25 -309zM180 627l-30 73q-23 2 -31 -22q-11 -33 -16 -38
l-6 -329q5 -23 5 -79t7 -82q10 -42 41 -62l20 16q19 109 19 246q0 17 -9 277z" />
    <glyph glyph-name="one" unicode="1" horiz-adv-x="190" 
d="M149 759q-7 -148 -7 -383v-379q-9 -13 -22 -13q-6 0 -20.5 4t-23.5 4q-6 0 -12 -2q0 463 -7 603q-19 -14 -26 -19q-15 -9 -28 -11q-3 13 -3 25q0 40 50.5 100t50.5 102q49 0 48 -31z" />
    <glyph glyph-name="two" unicode="2" horiz-adv-x="277" 
d="M237 71q2 -14 2 -26q0 -55 -57 -55q-18 0 -61 6.5t-63 6.5q-30 0 -48 -10l-10 10q117 330 163 623q-11 11 -13 45q-1 26 -28 33q-8 2 -16 2q-43 0 -59 -39q-42 27 -42 60q0 10 5 21q36 42 99 42q52 0 84 -32q47 -58 47 -137q0 -56 -28 -152q-31 -111 -36 -148
q-40 -108 -85 -243q3 -12 11 -12q4 0 13.5 5.5t13.5 6.5z" />
    <glyph glyph-name="three" unicode="3" horiz-adv-x="289" 
d="M240 103q-37 -98 -120 -113q-89 6 -120 47q0 21 9.5 41.5t23.5 24.5q12 -29 54 -29q18 0 36 6q51 43 51 134q0 46 -14 106q-5 21 -28 39l-42 28h-43v76q8 -2 15 -2q32 0 68 32q35 46 37 103q3 79 -60 114l-74 -24l-20 28q-12 19 -12 31q0 6 2 11q44 34 92 34
q72 0 118 -70q24 -97 24 -145q0 -68 -34 -112q-3 -5 -22 -19q-15 -12 -15 -21q0 -6 7 -13q77 -68 77 -207q0 -49 -10 -100z" />
    <glyph glyph-name="four" unicode="4" horiz-adv-x="329" 
d="M323 152q-5 -5 -18.5 -4.5t-19.5 -5.5q1 -45 1 -138q-2 -7 -9 -8q-4 -1 -12 0q-11 1 -13 1h-49l-4 9l3 143l-5 5q-63 0 -184 -7l-5 9q-3 13 -3 27q0 27 13 64l24 62q57 156 161 472q2 5 9 5.5t9 1.5q17 -1 54 -2l6 -6q3 -63 3 -264v-288q4 -3 10 -3q3 0 8.5 1t7.5 1
q10 0 13 -10q-3 -11 0 -32.5t0 -32.5zM199 229q-1 101 -1 300h-3q-34 -101 -107 -301l4 -4l105 2z" />
    <glyph glyph-name="five" unicode="5" horiz-adv-x="329" 
d="M318 782q6 -5 6 -12q0 -5 -3.5 -15t-3.5 -16q-1 -13 -13 -37q-48 -1 -145 1l-6 -8q-9 -54 -28 -165q7 -7 23 -10q24 -3 25 -3q60 -18 99 -75q35 -51 44 -117q5 -42 5 -80q0 -179 -116 -245q-40 -19 -83 -19q-40 0 -76 17q-15 10 -32 21t-24 25q2 14 16 33q18 27 21 30.5
t6 3.5q6 0 13 -10.5t13 -11.5q38 -24 64 -24q13 0 25 4q84 39 84 179q0 22 -2 58q-5 79 -63 115q-23 26 -63 26q-8 0 -15 -1q-29 4 -52 -2l-5 7l57 319q-2 6 4 12h225z" />
    <glyph glyph-name="six" unicode="6" horiz-adv-x="334" 
d="M320 143q-31 -137 -121 -155q-11 -6 -59 -4q-51 12 -88 57q-33 42 -41 96q-11 70 -11 139q0 286 172 509l2 2q35 -3 97 -2q5 -4 2 -21q-28 -34 -75 -107q-12 -12 -24 -37q-16 -31 -22 -40q-8 -12 -17.5 -39t-15.5 -38q-1 -2 3 -5q28 13 59 13q35 0 59 -16q88 -73 88 -233
q0 -46 -8 -119zM228 147q9 57 9 106q0 75 -21 134q-16 47 -58 46q-40 -11 -55 -57q-3 -10 -13 -82q2 -56 5 -111q8 -66 40 -103q15 -13 34 -13q7 0 14 3q21 8 31 33z" />
    <glyph glyph-name="seven" unicode="7" horiz-adv-x="329" 
d="M303 772q2 -14 -6 -37q-9 -26 -10 -38t-11 -42q-9 -26 -10 -43q-44 -203 -68 -347q-4 -24 -34 -261q-7 -9 -23 -8l-25 1q1 -1 -28 -1q-15 0 -23 7q11 111 32 204q-4 3 -2 6q5 5 5 6q40 232 103 464q3 7 -10 10q-87 4 -138 -1q-2 2 -21 0q-14 -1 -15 11l18 70q20 -1 60 0z
" />
    <glyph glyph-name="eight" unicode="8" horiz-adv-x="329" 
d="M252 5q-24 -12 -94 -15q-13 3 -39 11q-40 14 -69.5 50.5t-36.5 78.5q-11 70 3 110q0 19 11 45q10 21 20 43q9 12 72 87q-7 14 -23 32q-21 23 -25 29q-41 57 -41 138q0 66 29 114q42 67 118 67q39 0 73.5 -22.5t52.5 -57.5q22 -41 22 -101q0 -30 -6 -63q-16 -58 -76 -128
l2 -12q100 -101 100 -223q0 -58 -21 -106q-25 -55 -72 -77zM230 679l-19 20q-34 13 -48 8q-17 1 -41 -40q-7 -22 -7 -46q0 -67 59 -138q9 -2 17.5 10.5t12.5 14.5q40 53 40 113q0 33 -14 58zM235 104q20 34 20 81q0 68 -39 126q-9 12 -18 23q-11 15 -21 18q-12 -9 -46 -58
q-2 -6 -15 -27q-9 -17 -9 -30q-7 -25 -7 -52q0 -41 16 -71q24 -43 69 -39q34 2 50 29z" />
    <glyph glyph-name="nine" unicode="9" horiz-adv-x="340" 
d="M306 312q-36 -123 -78 -196q-4 -15 -16 -35q-19 -31 -21 -35l-39 -47l-99 1q-3 5 -3 11q0 10 16.5 25.5t18.5 21.5q101 137 133 226l-3 2q-27 -10 -56 -10q-44 0 -70 24q-77 69 -77 211q0 40 7 107q25 131 110 161q17 6 38 6q39 0 69 -19q36 -23 62 -79q28 -79 28 -185
q0 -89 -20 -190zM239 568q-5 33 -9 65q-7 38 -25 59q-14 15 -36 15q-17 0 -31 -10q-30 -38 -36 -107q-4 -39 -4 -70q0 -77 22 -131q16 -38 56 -36q27 7 36 24q29 54 27 191z" />
    <glyph glyph-name="colon" unicode=":" horiz-adv-x="120" 
d="M76 324h-70v102l70 -7v-95zM76 24h-70v102l70 -7v-95z" />
    <glyph glyph-name="semicolon" unicode=";" horiz-adv-x="117" 
d="M76 324h-70v102l70 -7v-95zM76 4l-68 -124l-2 226l70 -7v-95z" />
    <glyph glyph-name="question" unicode="?" horiz-adv-x="236" 
d="M156 769q53 -64 53 -130q0 -44 -27 -109q-24 -58 -49 -117q-15 -33 -58 -147q0 -64 -11 -86q-13 -26 -58 -38l6 135q25 69 53 134q23 51 31 81q13 45 29 145q-11 11 -12 45q-2 27 -28 33q-8 2 -17 2q-44 0 -58 -39q-42 25 -42 59q0 11 5 22q36 42 98 42q52 0 85 -32z
M76 4h-70v102l70 -7v-95z" />
    <glyph glyph-name="A" unicode="A" 
d="M366 0q-12 -5 -67 -5q-14 23 -19 69q-7 54 -11 67q-60 11 -107 11q-35 0 -64 -6q-9 -14 -13 -55q-5 -48 -10 -62q-10 -29 -36 -29q-16 0 -39 10q3 49 26 140q26 98 31 143q17 84 59 252.5t60 254.5q6 5 15 5q5 0 16 -2.5t18 -2.5q11 -89 43 -251q33 -170 44 -251l6 -19
q4 -46 24 -134t24 -135zM244 220q-14 142 -43 239q2 14 -3 40q-4 20 -8 39l-68 -312z" />
    <glyph glyph-name="B" unicode="B" horiz-adv-x="389" 
d="M350 306l-5 -112q-18 -5 -20 -30q-2 -33 -6 -40q-6 -38 -43 -69q-36 -26 -71 -52q-27 -10 -66 -13q-26 -2 -72 0q-49 1 -67 0q-2 173 13 800l152 -12q86 -14 124 -79q26 -43 26 -108q0 -30 -6 -63q-33 -72 -74 -101q31 -17 57 -56q33 -49 47 -62l7 7q-3 -9 4 -10z
M228 644q-48 77 -144 77v-274q64 -7 111 38q39 37 39 104q0 27 -6 55zM233 310q-38 73 -149 73q-6 -135 -6 -324q100 0 128 38q42 58 42 133q0 43 -15 80z" />
    <glyph glyph-name="C" unicode="C" horiz-adv-x="362" 
d="M340 664q-44 -28 -59 -28q-8 0 -14 4q5 33 -49 72q-15 6 -32 6q-21 0 -30 -11q-44 -38 -61 -121q-11 -67 -22 -135q0 -71 1 -143q2 -90 19 -146q23 -75 77 -110q7 -1 14 -1q42 0 75 60q7 4 8.5 21t4.5 22q15 -25 54 -29q3 -8 3 -18q0 -30 -37.5 -78.5t-100.5 -48.5
q-29 0 -70 10q-128 84 -128 321q0 47 7 143q8 121 26 181q30 96 101 139q28 17 63 17q40 0 76.5 -22t54.5 -57z" />
    <glyph glyph-name="D" unicode="D" horiz-adv-x="390" 
d="M306 655q45 -124 45 -258q0 -155 -59 -281q-106 -134 -205 -125l-77 7l-10 87l7 705q192 0 84 1q52 0 83 -11q64 -35 132 -125zM250 283q7 81 7 132q0 122 -38 208q-59 80 -125 80v-611h31q55 17 90 78q29 52 35 113z" />
    <glyph glyph-name="E" unicode="E" horiz-adv-x="274" 
d="M248 714h-148q-7 -65 -7 -248q37 -10 141 -10q-2 -5 -2 -10q0 -8 5 -24.5t5 -24.5q0 -14 -11 -24q-48 9 -75 9q-46 0 -70 -20v-293q12 -6 34 -6q28 0 35 -1q0 -1 7 -10q5 18 21 18q7 0 24 -5.5t24 -5.5v-69h-231q0 534 -1 401q2 228 15 399l234 -14v-62z" />
    <glyph glyph-name="F" unicode="F" horiz-adv-x="276" 
d="M244 709q-19 -12 -47 -12q-12 0 -35 2.5t-34 2.5q-26 0 -43 -10l7 -221l145 -10q-2 -9 0 -28q3 -25 3 -31q0 -31 -26 -32q-19 -1 -47 5.5t-40 6.5q-22 0 -42 -12q7 -93 7 -380h-92v786l14 14q27 -6 61 -6q18 0 54 2.5t53 2.5q31 0 55 -6z" />
    <glyph glyph-name="G" unicode="G" horiz-adv-x="405" 
d="M369 459q2 -67 2 -96q0 -123 -21 -201q-29 -104 -101 -165q-57 -19 -80 -19q-25 0 -41 12q-128 98 -128 339q0 47 5 133q5 93 6 131q17 75 33 108q27 57 78 86q33 13 66 13q30 0 61 -10q50 -16 77 -90q15 -15 15 -27q0 -16 -28 -30q-20 -10 -41 -20q-4 31 -25 55
q-24 26 -55 26q-16 0 -33 -8q-75 -74 -75 -243q0 -36 4 -106.5t4 -102.5q16 -83 25 -104q23 -56 75 -66q98 47 98 205q0 44 -8 103q-26 -7 -90 -7q-2 9 -2 20q0 27 15 64q23 12 53 12q18 0 55 -6t56 -6z" />
    <glyph glyph-name="H" unicode="H" horiz-adv-x="395" 
d="M360 725q-20 -72 -20 -193q0 -31 3 -127q12 -9 12 -22q0 -5 -3 -17.5t-2 -19.5v-327q-14 -6 -29 -22q-22 -24 -26 -27q1 2 10 14q5 7 3 15l-42 13l-4 370q-16 0 -48 6t-48 6q-26 0 -46 -12q-17 10 -29 -7v-369q-33 -4 -42 -4q-41 0 -41 31q0 7 2 15q0 28 1 365
q1 220 -11 364q8 20 35 20q-12 0 52 -7q4 -31 4 -66q0 -25 -2.5 -72t-2.5 -70q0 -56 11 -100q130 0 80 -1q42 1 79 11q6 54 5 149q-1 107 1 149q6 0 26 4t30 4q27 0 27 -23q0 -6 -2 -14q-1 -3 -1 -6q0 -8 8 -18z" />
    <glyph glyph-name="I" unicode="I" horiz-adv-x="149" 
d="M112 790q-16 -160 -16 -400q2 -425 2 -400q-8 2 -17 2q-11 0 -27 -3t-22 -3q-19 0 -32 18q16 621 14 786h98z" />
    <glyph glyph-name="J" unicode="J" horiz-adv-x="266" 
d="M232 790q-15 -143 -15 -379q0 -122 4 -232q-2 -97 -87 -143q-60 -34 -138 -34q-16 0 -26 2v95q25 -13 52 -13q41 0 73 25t32 57q9 440 7 622h98z" />
    <glyph glyph-name="K" unicode="K" horiz-adv-x="405" 
d="M374 -11q-7 -5 -19 -5q-1 0 -37 4q-27 3 -45 -1q-69 97 -175 250q2 -127 0 -247q-8 2 -17 2q-11 0 -27 -3t-22 -3q-19 0 -32 18q16 621 14 786h98q-14 -141 -14 -332q68 134 171 329h98q-28 -58 -128 -241q-93 -169 -104 -196q92 -131 239 -361z" />
    <glyph glyph-name="L" unicode="L" horiz-adv-x="274" 
d="M243 -10q-17 3 -39 3q-18 0 -57 -3t-57 -3q-57 0 -83 24q0 24 6.5 73.5t6.5 73.5q0 49 -20 85q14 26 14 76q0 56 7 78l-21 7q15 9 13 25q-3 21 1 29l7 332q6 -2 14 -2q9 0 26.5 5t25.5 5q15 0 26 -11q-15 -136 -13 -354q1 -286 -1 -354q48 1 144 -7v-82z" />
    <glyph glyph-name="M" unicode="M" horiz-adv-x="501" 
d="M464 772q-1 -50 -9 -381q-7 -250 -5 -401q-13 -7 -28 -7q-8 0 -23 3q-19 3 -27 4q-6 64 -6 136q0 61 6 168q6 120 7 173l-13 11q-68 -180 -129 -336h-17q-25 52 -61 169q-35 111 -61 163q-5 -80 -6 -188v-220q0 -42 -1 -76q-6 3 -15 3q-7 0 -22 -2.5t-22 -2.5
q-27 0 -32 29q14 536 14 765q12 8 32 8t35 -8l30 -92q18 -54 41 -90q19 -104 82 -217q97 217 155 396q24 7 40 7q24 0 35 -14z" />
    <glyph glyph-name="N" unicode="N" horiz-adv-x="386" 
d="M349 783l-14 -396q-12 1 -31 -7q4 -6 14 -6q15 0 17 -1v-383h-62l-186 490l-14 -487q-8 -4 -20 -5q-8 -1 -24 0.5t-21 1.5q-8 194 -8 396t8 404h65q25 -92 85 -246q69 -173 91 -244q1 47 7 194q5 117 5 189q0 52 -2 100h90z" />
    <glyph glyph-name="O" unicode="O" horiz-adv-x="438" 
d="M399 394q-10 -5 -13.5 -8t-8.5 -12q7 -8 21 -26l-2 -19q-12 -3 -12 -22q0 -2 1 -6v-5l1 -2q-13 -61 -42 -171q-32 -96 -110 -133q-21 -6 -45 -6q-37 0 -88 16q-101 119 -101 336q0 152 48 329q19 45 56.5 81.5t77.5 43.5q10 3 21 3q39 0 98 -46q52 -54 68 -157l16 -176z
M297 533q-10 127 -98 183q-55 -21 -74 -75q-7 -33 -25 -103q0 -33 -4 -104.5t-4 -108.5q0 -163 65 -252q15 -8 32 -8q36 0 58 33q7 15 13 25q18 32 17 51q0 16 -9 27q33 21 28 113q-2 33 1 109q3 73 0 110z" />
    <glyph glyph-name="P" unicode="P" horiz-adv-x="371" 
d="M305 685q37 -89 37 -168q0 -95 -54 -161q-32 -32 -92 -54q-52 -19 -104 -37v-275q-15 -7 -32 -7q-23 0 -60 14q8 112 8 299v129q0 228 12 365q211 0 285 -105zM241 607q-1 11 -17.5 19.5t-16.5 17.5q0 4 3 10q-22 13 -44 25q-27 15 -46 15q-8 0 -15 -2v-319q15 -2 61 14
q80 36 80 152q0 28 -5 68z" />
    <glyph glyph-name="Q" unicode="Q" horiz-adv-x="419" 
d="M379 80l-17 -83q-49 6 -80 6q-48 0 -70 -13q-7 0 -23.5 -1t-24.5 -1q-43 0 -63 25q-102 128 -102 355q0 111 25 247q18 45 37 91q24 52 64 73q32 11 60 11q46 0 90 -31q54 -54 80 -154q14 -52 14 -147q0 -17 -1 -52t-1 -53q0 -56 5 -92q-14 -32 -24 -84q-15 -80 -16 -83z
M242 682q-37 28 -67 28q-22 0 -37 -15q-53 -120 -53 -289q0 -160 46 -289q9 -37 46 -37q19 0 58 14q46 121 46 289q0 157 -39 299z" />
    <glyph glyph-name="R" unicode="R" horiz-adv-x="365" 
d="M326 -10q-9 1 -33 -3.5t-35 -4.5q-39 0 -49 39q-23 89 -116 223q-15 -47 -14 -126q2 -106 0 -128h-79v800h141q54 -5 103 -43q45 -35 72 -87q13 -71 13 -125q0 -111 -51 -174q-11 -20 -64 -44q-41 -19 -35 -49q24 -46 73.5 -138.5t73.5 -139.5zM233 605q-35 85 -133 103
q-13 -191 -13 -229q0 -57 6 -104q9 -3 18 -3q17 0 41 16q31 21 40 24q48 85 48 144q0 25 -7 49z" />
    <glyph glyph-name="S" unicode="S" horiz-adv-x="293" 
d="M252 768l-6 -87l-38 12q-25 7 -41 7q-12 0 -21 -3q-41 -31 -41 -85q0 -16 4 -32q46 -95 93 -191q53 -115 53 -199q0 -69 -32 -134q-36 -51 -123 -66q-24 4 -50 9t-46 14q-9 35 -2 111q37 -39 82 -39q26 0 52 13q33 35 33 88q0 37 -19 104q-40 79 -80 157q-46 99 -46 170
q0 82 58 144q72 29 103 29q36 0 67 -22z" />
    <glyph glyph-name="T" unicode="T" horiz-adv-x="297" 
d="M262 714q-8 2 -17 2q-13 0 -36 -5q-27 -6 -37 -7l-3 -714q-33 -11 -76 0l-14 24v697h-72q-7 14 -7 79q29 -6 65 -6q26 0 77.5 4t76.5 4q23 0 43 -2v-76z" />
    <glyph glyph-name="U" unicode="U" horiz-adv-x="393" 
d="M358 749q-13 -113 -13 -332q-2 -225 -11 -319l17 -10q-8 -4 -54 -51q-41 -41 -74 -47q-39 -7 -65 -7q-60 0 -97 37q-43 43 -54 125q-3 71 -7 142q-3 45 -3 97q0 61 5.5 178.5t5.5 169.5q0 31 -1 58h77q0 -14 -1 -212q-1 -130 1 -217q1 -122 7 -226q1 -18 24 -34
q35 -25 37 -27q26 0 30 7v10q4 -12 22 -12q13 0 19 9q36 29 44 108l-7 591q6 0 28 3.5t34 3.5q38 0 38 -29q0 -7 -2 -16z" />
    <glyph glyph-name="V" unicode="V" horiz-adv-x="423" 
d="M390 790q-6 -77 -31 -193q-22 -97 -43 -194q-27 -136 -77 -406q-10 -6 -30 -6q-28 0 -31 -1q-10 18 -17 49q-5 28 -10 55q-91 392 -151 683h87q61 -320 115 -532q5 25 54 268q33 163 47 270q68 0 87 7z" />
    <glyph glyph-name="W" unicode="W" horiz-adv-x="666" 
d="M634 790q-20 -127 -76 -394q-56 -262 -77 -399q-10 -6 -29 -6q-28 0 -32 -1q-9 31 -19 87q-12 61 -18 86q-12 46 -32 165q-19 112 -36 170q-12 -41 -30 -135l-71 -373q-4 1 -37 1q-23 -1 -31 13l-146 786h92q6 -99 40 -257q42 -191 51 -255q15 38 25 93q8 49 16 97
l61 322h61q29 -174 98 -519q22 85 52.5 259.5t52.5 259.5h85z" />
    <glyph glyph-name="X" unicode="X" horiz-adv-x="391" 
d="M356 4q-8 -18 -27 -18q-6 0 -23.5 3t-26.5 3t-17 -2q-28 95 -84 282q-27 -97 -83 -282q-8 2 -17 2q-10 0 -27 -3t-24 -3q-19 0 -26 18l128 383q-31 104 -62 209q-37 122 -66 194h98q27 -93 82 -273q26 96 76 273h99q-30 -73 -68 -197l-64 -212q44 -121 132 -377z" />
    <glyph glyph-name="Y" unicode="Y" horiz-adv-x="423" 
d="M393 769q-28 -83 -57 -167q-33 -99 -42 -164h-7q-45 -59 -53 -142q-4 -40 4 -153q6 -97 -6 -153q-8 -1 -29 -7t-32 -6q-18 0 -31 13q0 31 4.5 104.5t4.5 112.5q0 119 -33 190q-42 134 -116 386q14 6 40 6q40 0 45 1q19 -48 55 -144q-3 -13 14 -71q10 1 14 -36
q6 -45 20 -57q69 128 113 301q65 8 54 8q27 0 38 -22z" />
    <glyph glyph-name="Z" unicode="Z" horiz-adv-x="339" 
d="M315 785q-13 -57 -47 -158q-37 -108 -50 -158l19 -18l-32 -33q-36 -114 -108 -339q37 -12 102 -12q76 1 103 -4q1 -6 -5 -18.5t-6 -15.5q0 -6 11 -4q-15 2 -18 -12q-6 -22 -7 -23q-49 4 -140 6q-99 2 -137 5q4 37 19 91q9 5 9 11q0 3 -1.5 7.5t-1.5 6.5q0 6 5 10l67 208
q-7 6 -7 12t13.5 22.5t12.5 27.5q7 22 52 157q31 95 45 158q-152 12 -175 11q0 31 21 67q8 0 35 1q20 1 32 0q17 -1 33 -6h156z" />
    <glyph glyph-name="grave" unicode="`" horiz-adv-x="309" 
d="M275 659l-23 -27l-198 88l32 64z" />
    <glyph glyph-name="a" unicode="a" horiz-adv-x="324" 
d="M280 5q-5 3 -12 3q-8 0 -24 -5t-22 -5q-16 0 -17 24q-18 -23 -56 -28q-30 -1 -61 -2q-88 54 -88 169q0 25 13 132q40 90 113 99q42 -5 79 -38q13 36 13 54q0 22 -13 35q-17 10 -47 16l-52 8q-26 -25 -62 -21q-1 8 -4 27t-3 28q0 30 28 45q14 -4 29 -4q16 0 46.5 6t45.5 6
q38 0 63 -32l31 -55v-462zM195 262q-21 28 -51 28q-26 0 -42 -21q1 -13 -5 -18q-10 -10 -15 -20q-1 -19 -1 -33q0 -69 45 -114q7 -6 17 -6q24 0 38 20q27 25 27 78q0 37 -13 86z" />
    <glyph glyph-name="b" unicode="b" horiz-adv-x="333" 
d="M290 232q0 -179 -92 -242q-24 -7 -45 -7q-27 0 -40 13l-38 31q-7 -23 -7 -31h-68q-3 70 -3 153q0 119 7 326q9 241 10 321h68v-284q55 34 91 34q17 0 32 -6q58 -31 73 -104l12 -132q9 -7 9 -17q0 -6 -5.5 -25t-3.5 -30zM205 403q-3 23 -21.5 39.5t-42.5 16.5q-5 0 -11 -1
q-32 -24 -42 -72q-7 -28 -7 -89t-6 -85q5 -44 10 -87q11 -49 58 -53q68 39 68 164q0 26 -3 86q-4 55 -3 81z" />
    <glyph glyph-name="c" unicode="c" horiz-adv-x="292" 
d="M257 118q-5 -66 -70 -107q-15 -13 -43 -13q-19 0 -47 6q-46 31 -66 91q-12 39 -18 115q-6 83 -13 111q14 23 20 78t24 79q14 31 44 54t62 23q70 0 107 -101q-2 -21 -22.5 -31t-40.5 -19q-16 42 -16 43q-13 25 -35 25q-14 0 -26.5 -14.5t-12.5 -26.5q-16 -103 -16 -177
q0 -106 32 -160q6 -6 37 -6q24 14 30 60l-7 6q4 1 9 1q15 0 35 -13q17 -12 33 -24z" />
    <glyph glyph-name="d" unicode="d" horiz-adv-x="338" 
d="M295 796q1 -68 1 -145q0 -120 -4 -329q-4 -238 -5 -330h-66q0 3 1 9q1 5 0 7q0 4 -4 6q-40 -29 -83 -29q-17 0 -32 5q-104 65 -104 243q0 74 22 199q4 62 82 107q17 6 36 6q53 0 82 -36l11 287h63zM196 446q-24 20 -48 20q-18 0 -28 -15q-48 -99 -48 -208q0 -98 42 -171
q11 -9 26 -9q26 0 43 20q41 90 41 201q0 89 -28 162z" />
    <glyph glyph-name="e" unicode="e" horiz-adv-x="341" 
d="M287 257l-196 -7q-2 -28 -2 -43q0 -90 49 -130q5 -1 11 -1q36 0 62 45q0 28 10 33l-7 6q11 9 25 9q4 0 20 -2q12 -1 21 0q1 -10 1 -20q0 -102 -84 -146q-11 -3 -24 -3q-37 0 -102 33q-64 124 -64 192q0 21 4 40l-10 7l17 3l-17 30q14 0 17 7q-2 7 -10 17t-8 14q0 6 11 12
q18 73 34 107q28 58 76 82q11 4 23 4q30 0 97 -44q48 -78 48 -156q0 -18 -2 -36q7 -7 6 -25q-1 -16 -6 -28zM204 340q0 53 -13 83q-5 19 -16 19h-5q-4 -1 -6 -1q-11 0 -20 8q-27 -8 -35.5 -40.5t-14.5 -62.5q12 -7 35 -7q9 0 27.5 1t27.5 1q11 0 20 -1z" />
    <glyph glyph-name="f" unicode="f" horiz-adv-x="164" 
d="M175 749q-5 2 -11 2q-38 0 -48 -33q7 -17 7 -38q0 -17 -7 -50.5t-7 -49.5q0 -19 7 -35h34v-62l-40 -3q-11 -400 -11 -485q-6 -10 -20 -10q-6 0 -18.5 2.5t-18.5 2.5q-5 0 -8 -1v480q-31 0 -32 26v50l32 11q11 27 11 76v30q-1 19 -1 29q0 101 66 123h63z" />
    <glyph glyph-name="g" unicode="g" horiz-adv-x="332" 
d="M289 536q-1 -60 0 -155q2 -120 2 -153q0 -165 -15 -281q-3 -27 -33 -47q-25 -14 -51 -28q-31 -7 -61 -7q-59 0 -98 26l5 67q59 -21 102 -21q26 0 44 7.5t22 29.5q7 36 8 38q-6 3 -11 3q-8 0 -23 -12t-26 -10q-64 0 -108 43q-50 83 -50 206q0 84 23 183q26 112 122 127
q34 0 81 -41q4 29 34 29q10 0 33 -4zM208 425q-3 21 -22 37.5t-39 16.5q-23 0 -36 -24q-35 -88 -35 -199q0 -74 16 -152q24 -41 53 -41q10 0 20 6q53 80 53 223q0 63 -10 133z" />
    <glyph glyph-name="h" unicode="h" horiz-adv-x="318" 
d="M278 -4q-11 -13 -24 -13q-7 0 -21 4t-23 4q-7 0 -13 -2v456q-17 25 -41 25q-19 0 -36 -15l-39 -42q-5 -66 -6 -160v-191q0 -37 -1 -66q-15 -7 -73 -7q0 627 10 820l70 -7q0 -16 1 -95q1 -58 0 -96q-2 -54 -8 -100l14 -10q37 49 89 49q18 0 37 -7q23 -3 38 -26
q3 -4 19 -41q1 -23 1 -234q0 -155 6 -246z" />
    <glyph glyph-name="i" unicode="i" horiz-adv-x="119" 
d="M76 665h-70v103l70 -8v-95zM76 6q-8 -6 -22 -8q-10 -1 -26 0q-21 1 -22 1q-7 90 -7 257v275q30 12 77 0v-525z" />
    <glyph glyph-name="j" unicode="j" horiz-adv-x="213" 
d="M182 738l-2 -62q-4 -35 -42 -29l-44 7l2 56q5 36 28 49q37 0 58 -21zM168 539q5 -93 5 -198q0 -199 -18 -417q-42 -42 -132 -61q-8 11 -10 43q-3 28 -14 35v7q29 4 57 9q39 8 35 45q2 12 -4 24q-10 19 -10 20h-7q26 80 26 217q0 24 -1 71.5t-1 70.5q0 75 7 127q12 6 32 6
q31 0 35 1z" />
    <glyph glyph-name="k" unicode="k" horiz-adv-x="358" 
d="M321 2q-14 -7 -40 -7h-42q-7 27 -35 98q-24 60 -30 100q-8 8 -18 16.5t-18 8.5t-16 -8q-19 -38 -19 -94q0 -15 1.5 -45t1.5 -45q0 -17 -1 -31q-14 -7 -37 -7h-38q-5 226 -17 678l-14 13q12 12 14 72q1 48 35 48q9 0 20 -3q32 0 37 -10q1 -46 -2 -131q-4 -97 -4 -135
q0 -91 13 -156q20 17 42 68q27 62 38 79q26 37 63 37q19 0 42 -9q0 -38 -48.5 -108t-48.5 -108q0 -39 35 -75q31 -79 86 -246z" />
    <glyph glyph-name="l" unicode="l" horiz-adv-x="129" 
d="M85 10q-18 -22 -52 -22q-8 0 -13 2q-3 7 -20 7q-2 59 -2 127q0 74 4 223.5t4 224.5q0 106 -6 194q-2 26 27 26q7 0 21.5 -1.5t20.5 -1.5q7 0 12 1z" />
    <glyph glyph-name="m" unicode="m" horiz-adv-x="499" 
d="M458 18q-9 -16 -27 -16q-9 0 -26 4.5t-22 5.5q0 72 1 143q-1 93 -21 132q14 35 14 80q0 50 -20 80q-12 -5 -31 -6.5t-31 -6.5q-25 -50 -25 -106q0 -34 12 -51q-6 -48 -6 -134q0 -127 -1 -144q2 0 -26 1q-16 1 -20 -11l-29 23q5 74 5 142q0 148 -25 280q-15 15 -23 13
q-4 -15 -32.5 -23t-28.5 -23q0 -10 9 -26q-13 0 -12 -15t-4 -18q4 -53 5 -115q1 -42 -1 -112q-1 -79 -1 -110q-27 -9 -69 0q-3 25 -3 57q0 15 1 44.5t1 43.5q0 60 -12 97q7 21 7 125l-16 3q-6 8 -6 16t11 20.5t11 20.5q0 9 -13 21h6l7 69q16 6 32 6q29 0 43 -22q0 -8 7 -13
q47 47 86 47q13 0 25 -5q37 -16 49 -46q14 22 46 39q26 11 52 23q7 -7 32 -14.5t33 -17.5q18 -35 23 -103q7 -109 7 -110q-7 -87 6 -288z" />
    <glyph glyph-name="n" unicode="n" horiz-adv-x="292" 
d="M248 4h-72l-7 446q-13 13 -27 13q-10 0 -48 -23q-26 -72 -26 -198q0 -25 3 -120q2 -74 0 -118q-8 -7 -33.5 -7t-35.5 -7q-6 66 -6 144q0 67 6.5 202t6.5 203h68q0 -29 7 -31q33 44 82 44q65 0 82 -71v-477z" />
    <glyph glyph-name="o" unicode="o" horiz-adv-x="327" 
d="M271 138q-15 -89 -92 -132q-15 -6 -30 -6q-46 0 -102 56q-44 89 -44 203q0 133 57 243q32 41 91 41q47 0 74 -31q62 -72 62 -210q0 -68 -16 -164zM182 442q-9 -1 -21 9.5t-20 10.5q-6 0 -12 -3q-43 -50 -46 -145v-159l26 -42q18 -28 43 -24q57 67 57 191q0 86 -27 162z
" />
    <glyph glyph-name="p" unicode="p" horiz-adv-x="337" 
d="M271 458q27 -140 27 -214q0 -162 -102 -243q-11 -2 -22 -2q-24 0 -89 31q-14 -14 -14 -45q0 -14 4 -43t4 -40q0 -38 -30 -38q-18 0 -49 13q-2 41 -2 91q0 72 5 232.5t5 241.5q0 47 -1 88q13 6 38 6q33 0 40 1v-26q6 -4 12 -4q9 0 23 16.5t27 16.5q14 4 27 4q54 0 97 -86z
M196 419q-5 40 -31 40q-21 0 -46.5 -23t-30.5 -43q1 -21 0 -138q0 -84 13 -137q14 -31 46 -31q6 0 13 2q54 69 54 180q0 62 -18 150z" />
    <glyph glyph-name="q" unicode="q" horiz-adv-x="393" 
d="M350 -123q-31 -13 -49 -13q-30 0 -30 38q0 11 4 40t4 43q0 31 -14 45q-65 -31 -89 -31q-11 0 -22 2q-102 81 -102 243q0 74 27 214q43 86 97 86q13 0 27 -4q13 0 27 -16.5t23 -16.5q6 0 12 4v26q28 2 79 -7q-2 -47 -2 -101q0 -79 5 -234.5t5 -225.5q0 -51 -2 -92z
M262 393q-5 20 -30.5 43t-46.5 23q-26 0 -31 -40q-18 -88 -18 -150q0 -111 54 -180q7 -2 13 -2q32 0 46 31q13 53 13 137q-1 117 0 138z" />
    <glyph glyph-name="r" unicode="r" horiz-adv-x="207" 
d="M173 489q2 -23 -41 -41q-47 -20 -52 -46l-7 -399h-73v538q4 -1 9 -1q7 0 21 3.5t20 3.5q15 0 23 -13q0 -19 -4 -21q5 1 34 18t46 17q10 0 18 -4z" />
    <glyph glyph-name="s" unicode="s" horiz-adv-x="246" 
d="M193 447q-18 7 -45 7q-36 -1 -45 0q-31 -26 -31 -48q0 -10 8 -19q10 -24 80 -126q53 -78 53 -131q0 -50 -40 -97q-26 -38 -91 -38q-23 0 -76 8q-13 15 -13 45q0 22 7 49q26 -24 65 -24q19 0 38 7q36 26 30 67l-86 132q-47 80 -47 148q0 25 6 50q35 52 84 67q73 0 103 -20
v-77z" />
    <glyph glyph-name="t" unicode="t" horiz-adv-x="214" 
d="M176 533v-57q-2 -30 -38 -26l-14 -10q0 -18 1 -147q1 -96 0 -156q-2 -84 -8 -142l-66 7v448q-24 -2 -39 11t-15 35q0 8 2 17q0 21 14 31q23 0 28 1q14 4 14 20q-6 39 -6 65q0 108 82 108q3 -13 3 -30q0 -16 -4 -51.5t-4 -51.5q0 -62 50 -72z" />
    <glyph glyph-name="u" unicode="u" horiz-adv-x="311" 
d="M268 10q-10 -12 -28 -12q-4 0 -20 2q-12 1 -20 0q-4 2 -7 13t-10 11q-2 0 -6 -1q-15 -36 -68 -36q-20 0 -41 6q-32 13 -48 50q-10 33 -20 65v422q8 6 20 8q8 1 23 0q21 -1 25 -1q0 -20 7 -221q5 -133 3 -214q9 -30 45 -30q22 0 37 13q37 51 37 134q0 50 -14 97q9 29 9 69
q0 15 -1.5 44.5t-1.5 44.5q0 42 11 70q5 1 9 1q8 0 21.5 -5t21.5 -5q5 0 10 2z" />
    <glyph glyph-name="v" unicode="v" horiz-adv-x="326" 
d="M290 540q-27 -99 -57 -272q-33 -187 -54 -273q-11 -6 -22 -6q-4 0 -18 2t-25 1q-25 125 -89 419l-22 4q14 15 14 33q0 11 -9 34.5t-9 37.5q0 10 4 20h79q13 -38 25 -155q11 -100 39 -150q31 120 38 152q20 86 27 157q9 -5 23 -6q10 -1 27 1q21 1 29 1z" />
    <glyph glyph-name="w" unicode="w" horiz-adv-x="473" 
d="M438 530q-39 -181 -120 -538h-39q-2 8 -23 136q-14 82 -32 128h-11q6 11 6 25q0 15 -6 25h-6q-39 -143 -69 -311q-4 -4 -11 -4q-4 -1 -13 0q-11 1 -15 1q-15 25 -18 71q-6 66 -7 73q-29 140 -41 201q-23 117 -34 199q13 11 39 11q21 0 36 -6q8 -141 50 -299q18 36 31 109
q15 84 27 116q-2 7 -2 13q0 13 9.5 33.5t9.5 30.5h39q15 -129 44 -202q-6 -67 25 -106l61 305q42 5 38 5q21 0 32 -16z" />
    <glyph glyph-name="x" unicode="x" horiz-adv-x="303" 
d="M266 7q-11 -6 -25 -8q-10 -1 -26 0q-22 1 -23.5 1.5t-27.5 78.5q-16 46 -35 75q-17 -16 -36 -98q-15 -67 -52 -67q-17 0 -41 11q9 48 41 140q34 96 44 143q-47 109 -72 249q27 12 46 12q29 0 41 -31q3 -9 13 -65q7 -41 23 -56q17 14 34 88q15 62 51 62q18 0 45 -13
q-31 -89 -93 -259q26 -42 49 -130q26 -96 44 -133z" />
    <glyph glyph-name="y" unicode="y" horiz-adv-x="310" 
d="M275 534q-42 -167 -83 -334q-49 -198 -76 -336h-65q12 68 34 204q-32 157 -85 476q10 7 21 7q7 0 23 -4.5t24 -4.5q7 0 14 2q4 -64 19 -156q14 -79 28 -157q19 78 38 157q22 92 30 156q11 7 26 7q23 0 52 -17z" />
    <glyph glyph-name="z" unicode="z" horiz-adv-x="290" 
d="M254 65q1 -8 -8 -34.5t-16 -35.5q-62 1 -186 4q-22 0 -44 2q4 37 19 91q9 5 9 11q0 3 -1.5 7.5t-1.5 6.5q0 6 5 10q53 153 115 349q-54 4 -140 0q0 30 22 68q165 0 220 4q-20 -81 -61 -203q-75 -222 -92 -275q77 -7 160 -5z" />
    <glyph glyph-name="nonbreakingspace" unicode="&#xa0;" horiz-adv-x="146" 
 />
    <glyph glyph-name="dieresis" unicode="&#xa8;" horiz-adv-x="273" 
d="M233 644l-52 2l3 75h49v-77zM132 644h-52v77h52v-77z" />
    <glyph glyph-name="acute" unicode="&#xb4;" horiz-adv-x="313" 
d="M275 720l-198 -88l-23 27l189 125z" />
    <glyph glyph-name="Agrave" unicode="&#xc0;" 
d="M366 0q-12 -5 -67 -5q-14 23 -19 69q-7 54 -11 67q-60 11 -107 11q-35 0 -64 -6q-9 -14 -13 -55q-5 -48 -10 -62q-10 -29 -36 -29q-16 0 -39 10q3 49 26 140q26 98 31 143q17 84 59 252.5t60 254.5q6 5 15 5q5 0 16 -2.5t18 -2.5q11 -89 43 -251q33 -170 44 -251l6 -19
q4 -46 24 -134t24 -135zM244 220q-14 142 -43 239q2 14 -3 40q-4 20 -8 39l-68 -312z" />
    <glyph glyph-name="Aacute" unicode="&#xc1;" horiz-adv-x="402" 
d="M366 0q-12 -5 -67 -5q-14 23 -19 69q-7 54 -11 67q-60 11 -107 11q-35 0 -64 -6q-9 -14 -13 -55q-5 -48 -10 -62q-10 -29 -36 -29q-16 0 -39 10q3 49 26 140q26 98 31 143q17 84 59 252.5t60 254.5q6 5 15 5q5 0 16 -2.5t18 -2.5q11 -89 43 -251q33 -170 44 -251l6 -19
q4 -46 24 -134t24 -135zM244 220q-14 142 -43 239q2 14 -3 40q-4 20 -8 39l-68 -312zM325 898l-198 -88l-23 27l189 125z" />
    <glyph glyph-name="Acircumflex" unicode="&#xc2;" 
d="M366 0q-12 -5 -67 -5q-14 23 -19 69q-7 54 -11 67q-60 11 -107 11q-35 0 -64 -6q-9 -14 -13 -55q-5 -48 -10 -62q-10 -29 -36 -29q-16 0 -39 10q3 49 26 140q26 98 31 143q17 84 59 252.5t60 254.5q6 5 15 5q5 0 16 -2.5t18 -2.5q11 -89 43 -251q33 -170 44 -251l6 -19
q4 -46 24 -134t24 -135zM244 220q-14 142 -43 239q2 14 -3 40q-4 20 -8 39l-68 -312z" />
    <glyph glyph-name="Atilde" unicode="&#xc3;" 
d="M366 0q-12 -5 -67 -5q-14 23 -19 69q-7 54 -11 67q-60 11 -107 11q-35 0 -64 -6q-9 -14 -13 -55q-5 -48 -10 -62q-10 -29 -36 -29q-16 0 -39 10q3 49 26 140q26 98 31 143q17 84 59 252.5t60 254.5q6 5 15 5q5 0 16 -2.5t18 -2.5q11 -89 43 -251q33 -170 44 -251l6 -19
q4 -46 24 -134t24 -135zM244 220q-14 142 -43 239q2 14 -3 40q-4 20 -8 39l-68 -312zM305 896q-51 -92 -78 -89q-15 2 -43.5 25.5t-36.5 23.5q-17 0 -35 -29l-29 15q39 72 58 72q10 0 41 -27.5t43 -27.5q21 0 49 52z" />
    <glyph glyph-name="Adieresis" unicode="&#xc4;" 
d="M366 0q-12 -5 -67 -5q-14 23 -19 69q-7 54 -11 67q-60 11 -107 11q-35 0 -64 -6q-9 -14 -13 -55q-5 -48 -10 -62q-10 -29 -36 -29q-16 0 -39 10q3 49 26 140q26 98 31 143q17 84 59 252.5t60 254.5q6 5 15 5q5 0 16 -2.5t18 -2.5q11 -89 43 -251q33 -170 44 -251l6 -19
q4 -46 24 -134t24 -135zM244 220q-14 142 -43 239q2 14 -3 40q-4 20 -8 39l-68 -312zM274 810l-52 2l3 75h49v-77zM173 810h-52v77h52v-77z" />
    <glyph glyph-name="Aring" unicode="&#xc5;" 
d="M366 0q-12 -5 -67 -5q-14 23 -19 69q-7 54 -11 67q-60 11 -107 11q-35 0 -64 -6q-9 -14 -13 -55q-5 -48 -10 -62q-10 -29 -36 -29q-16 0 -39 10q3 49 26 140q26 98 31 143q17 84 59 252.5t60 254.5q6 5 15 5q5 0 16 -2.5t18 -2.5q11 -89 43 -251q33 -170 44 -251l6 -19
q4 -46 24 -134t24 -135zM244 220q-14 142 -43 239q2 14 -3 40q-4 20 -8 39l-68 -312z" />
    <glyph glyph-name="Egrave" unicode="&#xc8;" horiz-adv-x="274" 
d="M248 714h-148q-7 -65 -7 -248q37 -10 141 -10q-2 -5 -2 -10q0 -8 5 -24.5t5 -24.5q0 -14 -11 -24q-48 9 -75 9q-46 0 -70 -20v-293q12 -6 34 -6q28 0 35 -1q0 -1 7 -10q5 18 21 18q7 0 24 -5.5t24 -5.5v-69h-231q0 534 -1 401q2 228 15 399l234 -14v-62zM243 820l-23 -27
l-198 88l32 64z" />
    <glyph glyph-name="Eacute" unicode="&#xc9;" horiz-adv-x="273" 
d="M248 714h-148q-7 -65 -7 -248q37 -10 141 -10q-2 -5 -2 -10q0 -8 5 -24.5t5 -24.5q0 -14 -11 -24q-48 9 -75 9q-46 0 -70 -20v-293q12 -6 34 -6q28 0 35 -1q0 -1 7 -10q5 18 21 18q7 0 24 -5.5t24 -5.5v-69h-231q0 534 -1 401q2 228 15 399l234 -14v-62zM246 886
l-198 -88l-23 27l189 125z" />
    <glyph glyph-name="Ecircumflex" unicode="&#xca;" horiz-adv-x="273" 
d="M248 714h-148q-7 -65 -7 -248q37 -10 141 -10q-2 -5 -2 -10q0 -8 5 -24.5t5 -24.5q0 -14 -11 -24q-48 9 -75 9q-46 0 -70 -20v-293q12 -6 34 -6q28 0 35 -1q0 -1 7 -10q5 18 21 18q7 0 24 -5.5t24 -5.5v-69h-231q0 534 -1 401q2 228 15 399l234 -14v-62zM216 819l-43 -15
l-38 58l-40 -58l-44 20l75 113h23z" />
    <glyph glyph-name="Edieresis" unicode="&#xcb;" horiz-adv-x="274" 
d="M248 714h-148q-7 -65 -7 -248q37 -10 141 -10q-2 -5 -2 -10q0 -8 5 -24.5t5 -24.5q0 -14 -11 -24q-48 9 -75 9q-46 0 -70 -20v-293q12 -6 34 -6q28 0 35 -1q0 -1 7 -10q5 18 21 18q7 0 24 -5.5t24 -5.5v-69h-231q0 534 -1 401q2 228 15 399l234 -14v-62zM212 807l-52 2
l3 75h49v-77zM111 807h-52v77h52v-77z" />
    <glyph glyph-name="Igrave" unicode="&#xcc;" horiz-adv-x="164" 
d="M112 790q-16 -160 -16 -400q2 -425 2 -400q-8 2 -17 2q-11 0 -27 -3t-22 -3q-19 0 -32 18q16 621 14 786h98zM175 832l-23 -27l-198 88l32 64z" />
    <glyph glyph-name="Iacute" unicode="&#xcd;" horiz-adv-x="186" 
d="M112 790q-16 -160 -16 -400q2 -425 2 -400q-8 2 -17 2q-11 0 -27 -3t-22 -3q-19 0 -32 18q16 621 14 786h98zM199 908l-198 -88l-23 27l189 125z" />
    <glyph glyph-name="Icircumflex" unicode="&#xce;" horiz-adv-x="149" 
d="M112 790q-16 -160 -16 -400q2 -425 2 -400q-8 2 -17 2q-11 0 -27 -3t-22 -3q-19 0 -32 18q16 621 14 786h98zM143 817l-43 -15l-38 58l-40 -58l-44 20l75 113h23z" />
    <glyph glyph-name="Idieresis" unicode="&#xcf;" horiz-adv-x="149" 
d="M112 790q-16 -160 -16 -400q2 -425 2 -400q-8 2 -17 2q-11 0 -27 -3t-22 -3q-19 0 -32 18q16 621 14 786h98zM139 808l-52 2l3 75h49v-77zM38 808h-52v77h52v-77z" />
    <glyph glyph-name="Ntilde" unicode="&#xd1;" horiz-adv-x="386" 
d="M349 783l-14 -396q-12 1 -31 -7q4 -6 14 -6q15 0 17 -1v-383h-62l-186 490l-14 -487q-8 -4 -20 -5q-8 -1 -24 0.5t-21 1.5q-8 194 -8 396t8 404h65q25 -92 85 -246q69 -173 91 -244q1 47 7 194q5 117 5 189q0 52 -2 100h90z" />
    <glyph glyph-name="Ograve" unicode="&#xd2;" horiz-adv-x="438" 
d="M399 394q-10 -5 -13.5 -8t-8.5 -12q7 -8 21 -26l-2 -19q-12 -3 -12 -22q0 -2 1 -6v-5l1 -2q-13 -61 -42 -171q-32 -96 -110 -133q-21 -6 -45 -6q-37 0 -88 16q-101 119 -101 336q0 152 48 329q19 45 56.5 81.5t77.5 43.5q10 3 21 3q39 0 98 -46q52 -54 68 -157l16 -176z
M297 533q-10 127 -98 183q-55 -21 -74 -75q-7 -33 -25 -103q0 -33 -4 -104.5t-4 -108.5q0 -163 65 -252q15 -8 32 -8q36 0 58 33q7 15 13 25q18 32 17 51q0 16 -9 27q33 21 28 113q-2 33 1 109q3 73 0 110zM310 824l-23 -27l-198 88l32 64z" />
    <glyph glyph-name="Oacute" unicode="&#xd3;" horiz-adv-x="438" 
d="M399 394q-10 -5 -13.5 -8t-8.5 -12q7 -8 21 -26l-2 -19q-12 -3 -12 -22q0 -2 1 -6v-5l1 -2q-13 -61 -42 -171q-32 -96 -110 -133q-21 -6 -45 -6q-37 0 -88 16q-101 119 -101 336q0 152 48 329q19 45 56.5 81.5t77.5 43.5q10 3 21 3q39 0 98 -46q52 -54 68 -157l16 -176z
M297 533q-10 127 -98 183q-55 -21 -74 -75q-7 -33 -25 -103q0 -33 -4 -104.5t-4 -108.5q0 -163 65 -252q15 -8 32 -8q36 0 58 33q7 15 13 25q18 32 17 51q0 16 -9 27q33 21 28 113q-2 33 1 109q3 73 0 110zM313 888l-198 -88l-23 27l189 125z" />
    <glyph glyph-name="Ocircumflex" unicode="&#xd4;" horiz-adv-x="438" 
d="M399 394q-10 -5 -13.5 -8t-8.5 -12q7 -8 21 -26l-2 -19q-12 -3 -12 -22q0 -2 1 -6v-5l1 -2q-13 -61 -42 -171q-32 -96 -110 -133q-21 -6 -45 -6q-37 0 -88 16q-101 119 -101 336q0 152 48 329q19 45 56.5 81.5t77.5 43.5q10 3 21 3q39 0 98 -46q52 -54 68 -157l16 -176z
M297 533q-10 127 -98 183q-55 -21 -74 -75q-7 -33 -25 -103q0 -33 -4 -104.5t-4 -108.5q0 -163 65 -252q15 -8 32 -8q36 0 58 33q7 15 13 25q18 32 17 51q0 16 -9 27q33 21 28 113q-2 33 1 109q3 73 0 110zM287 820l-43 -15l-38 58l-40 -58l-44 20l75 113h23z" />
    <glyph glyph-name="Otilde" unicode="&#xd5;" horiz-adv-x="438" 
d="M399 394q-10 -5 -13.5 -8t-8.5 -12q7 -8 21 -26l-2 -19q-12 -3 -12 -22q0 -2 1 -6v-5l1 -2q-13 -61 -42 -171q-32 -96 -110 -133q-21 -6 -45 -6q-37 0 -88 16q-101 119 -101 336q0 152 48 329q19 45 56.5 81.5t77.5 43.5q10 3 21 3q39 0 98 -46q52 -54 68 -157l16 -176z
M297 533q-10 127 -98 183q-55 -21 -74 -75q-7 -33 -25 -103q0 -33 -4 -104.5t-4 -108.5q0 -163 65 -252q15 -8 32 -8q36 0 58 33q7 15 13 25q18 32 17 51q0 16 -9 27q33 21 28 113q-2 33 1 109q3 73 0 110zM314 892q-51 -92 -78 -89q-15 2 -43.5 25.5t-36.5 23.5
q-17 0 -35 -29l-29 15q39 72 58 72q10 0 41 -27.5t43 -27.5q21 0 49 52z" />
    <glyph glyph-name="Odieresis" unicode="&#xd6;" horiz-adv-x="438" 
d="M399 394q-10 -5 -13.5 -8t-8.5 -12q7 -8 21 -26l-2 -19q-12 -3 -12 -22q0 -2 1 -6v-5l1 -2q-13 -61 -42 -171q-32 -96 -110 -133q-21 -6 -45 -6q-37 0 -88 16q-101 119 -101 336q0 152 48 329q19 45 56.5 81.5t77.5 43.5q10 3 21 3q39 0 98 -46q52 -54 68 -157l16 -176z
M297 533q-10 127 -98 183q-55 -21 -74 -75q-7 -33 -25 -103q0 -33 -4 -104.5t-4 -108.5q0 -163 65 -252q15 -8 32 -8q36 0 58 33q7 15 13 25q18 32 17 51q0 16 -9 27q33 21 28 113q-2 33 1 109q3 73 0 110zM274 812l-52 2l3 75h49v-77zM173 812h-52v77h52v-77z" />
    <glyph glyph-name="Ugrave" unicode="&#xd9;" horiz-adv-x="393" 
d="M358 749q-13 -113 -13 -332q-2 -225 -11 -319l17 -10q-8 -4 -54 -51q-41 -41 -74 -47q-39 -7 -65 -7q-60 0 -97 37q-43 43 -54 125q-3 71 -7 142q-3 45 -3 97q0 61 5.5 178.5t5.5 169.5q0 31 -1 58h77q0 -14 -1 -212q-1 -130 1 -217q1 -122 7 -226q1 -18 24 -34
q35 -25 37 -27q26 0 30 7v10q4 -12 22 -12q13 0 19 9q36 29 44 108l-7 591q6 0 28 3.5t34 3.5q38 0 38 -29q0 -7 -2 -16zM284 824l-23 -27l-198 88l32 64z" />
    <glyph glyph-name="Uacute" unicode="&#xda;" horiz-adv-x="393" 
d="M358 749q-13 -113 -13 -332q-2 -225 -11 -319l17 -10q-8 -4 -54 -51q-41 -41 -74 -47q-39 -7 -65 -7q-60 0 -97 37q-43 43 -54 125q-3 71 -7 142q-3 45 -3 97q0 61 5.5 178.5t5.5 169.5q0 31 -1 58h77q0 -14 -1 -212q-1 -130 1 -217q1 -122 7 -226q1 -18 24 -34
q35 -25 37 -27q26 0 30 7v10q4 -12 22 -12q13 0 19 9q36 29 44 108l-7 591q6 0 28 3.5t34 3.5q38 0 38 -29q0 -7 -2 -16zM298 905l-198 -88l-23 27l189 125z" />
    <glyph glyph-name="Ucircumflex" unicode="&#xdb;" horiz-adv-x="393" 
d="M358 749q-13 -113 -13 -332q-2 -225 -11 -319l17 -10q-8 -4 -54 -51q-41 -41 -74 -47q-39 -7 -65 -7q-60 0 -97 37q-43 43 -54 125q-3 71 -7 142q-3 45 -3 97q0 61 5.5 178.5t5.5 169.5q0 31 -1 58h77q0 -14 -1 -212q-1 -130 1 -217q1 -122 7 -226q1 -18 24 -34
q35 -25 37 -27q26 0 30 7v10q4 -12 22 -12q13 0 19 9q36 29 44 108l-7 591q6 0 28 3.5t34 3.5q38 0 38 -29q0 -7 -2 -16zM257 820l-43 -15l-38 58l-40 -58l-44 20l75 113h23z" />
    <glyph glyph-name="Udieresis" unicode="&#xdc;" horiz-adv-x="393" 
d="M358 749q-13 -113 -13 -332q-2 -225 -11 -319l17 -10q-8 -4 -54 -51q-41 -41 -74 -47q-39 -7 -65 -7q-60 0 -97 37q-43 43 -54 125q-3 71 -7 142q-3 45 -3 97q0 61 5.5 178.5t5.5 169.5q0 31 -1 58h77q0 -14 -1 -212q-1 -130 1 -217q1 -122 7 -226q1 -18 24 -34
q35 -25 37 -27q26 0 30 7v10q4 -12 22 -12q13 0 19 9q36 29 44 108l-7 591q6 0 28 3.5t34 3.5q38 0 38 -29q0 -7 -2 -16zM262 812l-52 2l3 75h49v-77zM161 812h-52v77h52v-77z" />
    <glyph glyph-name="agrave" unicode="&#xe0;" horiz-adv-x="323" 
d="M280 5q-5 3 -12 3q-8 0 -24 -5t-22 -5q-16 0 -17 24q-18 -23 -56 -28q-30 -1 -61 -2q-88 54 -88 169q0 25 13 132q40 90 113 99q42 -5 79 -38q13 36 13 54q0 22 -13 35q-17 10 -47 16l-52 8q-26 -25 -62 -21q-1 8 -4 27t-3 28q0 30 28 45q14 -4 29 -4q16 0 46.5 6t45.5 6
q38 0 63 -32l31 -55v-462zM195 262q-21 28 -51 28q-26 0 -42 -21q1 -13 -5 -18q-10 -10 -15 -20q-1 -19 -1 -33q0 -69 45 -114q7 -6 17 -6q24 0 38 20q27 25 27 78q0 37 -13 86zM275 659l-23 -27l-198 88l32 64z" />
    <glyph glyph-name="aacute" unicode="&#xe1;" horiz-adv-x="323" 
d="M280 5q-5 3 -12 3q-8 0 -24 -5t-22 -5q-16 0 -17 24q-18 -23 -56 -28q-30 -1 -61 -2q-88 54 -88 169q0 25 13 132q40 90 113 99q42 -5 79 -38q13 36 13 54q0 22 -13 35q-17 10 -47 16l-52 8q-26 -25 -62 -21q-1 8 -4 27t-3 28q0 30 28 45q14 -4 29 -4q16 0 46.5 6t45.5 6
q38 0 63 -32l31 -55v-462zM195 262q-21 28 -51 28q-26 0 -42 -21q1 -13 -5 -18q-10 -10 -15 -20q-1 -19 -1 -33q0 -69 45 -114q7 -6 17 -6q24 0 38 20q27 25 27 78q0 37 -13 86zM275 720l-198 -88l-23 27l189 125z" />
    <glyph glyph-name="acircumflex" unicode="&#xe2;" horiz-adv-x="323" 
d="M280 5q-5 3 -12 3q-8 0 -24 -5t-22 -5q-16 0 -17 24q-18 -23 -56 -28q-30 -1 -61 -2q-88 54 -88 169q0 25 13 132q40 90 113 99q42 -5 79 -38q13 36 13 54q0 22 -13 35q-17 10 -47 16l-52 8q-26 -25 -62 -21q-1 8 -4 27t-3 28q0 30 28 45q14 -4 29 -4q16 0 46.5 6t45.5 6
q38 0 63 -32l31 -55v-462zM195 262q-21 28 -51 28q-26 0 -42 -21q1 -13 -5 -18q-10 -10 -15 -20q-1 -19 -1 -33q0 -69 45 -114q7 -6 17 -6q24 0 38 20q27 25 27 78q0 37 -13 86zM230 644l-43 -15l-38 58l-40 -58l-44 20l75 113h23z" />
    <glyph glyph-name="atilde" unicode="&#xe3;" horiz-adv-x="323" 
d="M280 5q-5 3 -12 3q-8 0 -24 -5t-22 -5q-16 0 -17 24q-18 -23 -56 -28q-30 -1 -61 -2q-88 54 -88 169q0 25 13 132q40 90 113 99q42 -5 79 -38q13 36 13 54q0 22 -13 35q-17 10 -47 16l-52 8q-26 -25 -62 -21q-1 8 -4 27t-3 28q0 30 28 45q14 -4 29 -4q16 0 46.5 6t45.5 6
q38 0 63 -32l31 -55v-462zM195 262q-21 28 -51 28q-26 0 -42 -21q1 -13 -5 -18q-10 -10 -15 -20q-1 -19 -1 -33q0 -69 45 -114q7 -6 17 -6q24 0 38 20q27 25 27 78q0 37 -13 86zM267 721q-51 -92 -78 -89q-15 2 -43.5 25.5t-36.5 23.5q-17 0 -35 -29l-29 15q39 72 58 72
q10 0 41 -27.5t43 -27.5q21 0 49 52z" />
    <glyph glyph-name="adieresis" unicode="&#xe4;" horiz-adv-x="323" 
d="M280 5q-5 3 -12 3q-8 0 -24 -5t-22 -5q-16 0 -17 24q-18 -23 -56 -28q-30 -1 -61 -2q-88 54 -88 169q0 25 13 132q40 90 113 99q42 -5 79 -38q13 36 13 54q0 22 -13 35q-17 10 -47 16l-52 8q-26 -25 -62 -21q-1 8 -4 27t-3 28q0 30 28 45q14 -4 29 -4q16 0 46.5 6t45.5 6
q38 0 63 -32l31 -55v-462zM195 262q-21 28 -51 28q-26 0 -42 -21q1 -13 -5 -18q-10 -10 -15 -20q-1 -19 -1 -33q0 -69 45 -114q7 -6 17 -6q24 0 38 20q27 25 27 78q0 37 -13 86zM233 644l-52 2l3 75h49v-77zM132 644h-52v77h52v-77z" />
    <glyph glyph-name="aring" unicode="&#xe5;" horiz-adv-x="325" 
d="M280 5q-5 3 -12 3q-8 0 -24 -5t-22 -5q-16 0 -17 24q-18 -23 -56 -28q-30 -1 -61 -2q-88 54 -88 169q0 25 13 132q40 90 113 99q42 -5 79 -38q13 36 13 54q0 22 -13 35q-17 10 -47 16l-52 8q-26 -25 -62 -21q-1 8 -4 27t-3 28q0 30 28 45q14 -4 29 -4q16 0 46.5 6t45.5 6
q38 0 63 -32l31 -55v-462zM195 262q-21 28 -51 28q-26 0 -42 -21q1 -13 -5 -18q-10 -10 -15 -20q-1 -19 -1 -33q0 -69 45 -114q7 -6 17 -6q24 0 38 20q27 25 27 78q0 37 -13 86z" />
    <glyph glyph-name="ccedilla" unicode="&#xe7;" horiz-adv-x="292" 
d="M257 118q-5 -66 -70 -107q-15 -13 -43 -13q-19 0 -47 6q-46 31 -66 91q-12 39 -18 115q-6 83 -13 111q14 23 20 78t24 79q14 31 44 54t62 23q70 0 107 -101q-2 -21 -22.5 -31t-40.5 -19q-16 42 -16 43q-13 25 -35 25q-14 0 -26.5 -14.5t-12.5 -26.5q-16 -103 -16 -177
q0 -106 32 -160q6 -6 37 -6q24 14 30 60l-7 6q4 1 9 1q15 0 35 -13q17 -12 33 -24z" />
    <glyph glyph-name="egrave" unicode="&#xe8;" horiz-adv-x="341" 
d="M287 257l-196 -7q-2 -28 -2 -43q0 -90 49 -130q5 -1 11 -1q36 0 62 45q0 28 10 33l-7 6q11 9 25 9q4 0 20 -2q12 -1 21 0q1 -10 1 -20q0 -102 -84 -146q-11 -3 -24 -3q-37 0 -102 33q-64 124 -64 192q0 21 4 40l-10 7l17 3l-17 30q14 0 17 7q-2 7 -10 17t-8 14q0 6 11 12
q18 73 34 107q28 58 76 82q11 4 23 4q30 0 97 -44q48 -78 48 -156q0 -18 -2 -36q7 -7 6 -25q-1 -16 -6 -28zM204 340q0 53 -13 83q-5 19 -16 19h-5q-4 -1 -6 -1q-11 0 -20 8q-27 -8 -35.5 -40.5t-14.5 -62.5q12 -7 35 -7q9 0 27.5 1t27.5 1q11 0 20 -1zM275 659l-23 -27
l-198 88l32 64z" />
    <glyph glyph-name="eacute" unicode="&#xe9;" horiz-adv-x="341" 
d="M287 257l-196 -7q-2 -28 -2 -43q0 -90 49 -130q5 -1 11 -1q36 0 62 45q0 28 10 33l-7 6q11 9 25 9q4 0 20 -2q12 -1 21 0q1 -10 1 -20q0 -102 -84 -146q-11 -3 -24 -3q-37 0 -102 33q-64 124 -64 192q0 21 4 40l-10 7l17 3l-17 30q14 0 17 7q-2 7 -10 17t-8 14q0 6 11 12
q18 73 34 107q28 58 76 82q11 4 23 4q30 0 97 -44q48 -78 48 -156q0 -18 -2 -36q7 -7 6 -25q-1 -16 -6 -28zM204 340q0 53 -13 83q-5 19 -16 19h-5q-4 -1 -6 -1q-11 0 -20 8q-27 -8 -35.5 -40.5t-14.5 -62.5q12 -7 35 -7q9 0 27.5 1t27.5 1q11 0 20 -1zM275 720l-198 -88
l-23 27l189 125z" />
    <glyph glyph-name="ecircumflex" unicode="&#xea;" horiz-adv-x="341" 
d="M287 257l-196 -7q-2 -28 -2 -43q0 -90 49 -130q5 -1 11 -1q36 0 62 45q0 28 10 33l-7 6q11 9 25 9q4 0 20 -2q12 -1 21 0q1 -10 1 -20q0 -102 -84 -146q-11 -3 -24 -3q-37 0 -102 33q-64 124 -64 192q0 21 4 40l-10 7l17 3l-17 30q14 0 17 7q-2 7 -10 17t-8 14q0 6 11 12
q18 73 34 107q28 58 76 82q11 4 23 4q30 0 97 -44q48 -78 48 -156q0 -18 -2 -36q7 -7 6 -25q-1 -16 -6 -28zM204 340q0 53 -13 83q-5 19 -16 19h-5q-4 -1 -6 -1q-11 0 -20 8q-27 -8 -35.5 -40.5t-14.5 -62.5q12 -7 35 -7q9 0 27.5 1t27.5 1q11 0 20 -1zM225 638l-43 -15
l-38 58l-40 -58l-44 20l75 113h23z" />
    <glyph glyph-name="edieresis" unicode="&#xeb;" horiz-adv-x="341" 
d="M287 257l-196 -7q-2 -28 -2 -43q0 -90 49 -130q5 -1 11 -1q36 0 62 45q0 28 10 33l-7 6q11 9 25 9q4 0 20 -2q12 -1 21 0q1 -10 1 -20q0 -102 -84 -146q-11 -3 -24 -3q-37 0 -102 33q-64 124 -64 192q0 21 4 40l-10 7l17 3l-17 30q14 0 17 7q-2 7 -10 17t-8 14q0 6 11 12
q18 73 34 107q28 58 76 82q11 4 23 4q30 0 97 -44q48 -78 48 -156q0 -18 -2 -36q7 -7 6 -25q-1 -16 -6 -28zM204 340q0 53 -13 83q-5 19 -16 19h-5q-4 -1 -6 -1q-11 0 -20 8q-27 -8 -35.5 -40.5t-14.5 -62.5q12 -7 35 -7q9 0 27.5 1t27.5 1q11 0 20 -1zM233 644l-52 2l3 75
h49v-77zM132 644h-52v77h52v-77z" />
    <glyph glyph-name="igrave" unicode="&#xec;" horiz-adv-x="213" 
d="M229 661l-24 -26l-198 88l32 64zM145 6q-8 -6 -22 -8q-11 -1 -27 0q-21 1 -22 1q-5 73 -6 191v252q0 49 -1 89q31 12 78 0v-525z" />
    <glyph glyph-name="iacute" unicode="&#xed;" horiz-adv-x="210" 
d="M76 6q-8 -6 -22 -8q-10 -1 -26 0q-21 1 -22 1q-7 90 -7 257v275q30 12 77 0v-525zM180 714l-198 -88l-23 27l189 125z" />
    <glyph glyph-name="icircumflex" unicode="&#xee;" horiz-adv-x="126" 
d="M76 6q-8 -6 -22 -8q-10 -1 -26 0q-21 1 -22 1q-7 90 -7 257v275q30 12 77 0v-525zM121 638l-43 -15l-38 58l-40 -58l-44 20l75 113h23z" />
    <glyph glyph-name="idieresis" unicode="&#xef;" horiz-adv-x="125" 
d="M76 6q-8 -6 -22 -8q-10 -1 -26 0q-21 1 -22 1q-7 90 -7 257v275q30 12 77 0v-525zM120 647l-52 2l3 75h49v-77zM19 647h-52v77h52v-77z" />
    <glyph glyph-name="ntilde" unicode="&#xf1;" horiz-adv-x="291" 
d="M248 4h-72l-7 446q-13 13 -27 13q-10 0 -48 -23q-26 -72 -26 -198q0 -25 3 -120q2 -74 0 -118q-8 -7 -33.5 -7t-35.5 -7q-6 66 -6 144q0 67 6.5 202t6.5 203h68q0 -29 7 -31q33 44 82 44q65 0 82 -71v-477zM250 721q-51 -92 -78 -89q-15 2 -43.5 25.5t-36.5 23.5
q-17 0 -35 -29l-29 15q39 72 58 72q10 0 41 -27.5t43 -27.5q21 0 49 52z" />
    <glyph glyph-name="ograve" unicode="&#xf2;" horiz-adv-x="326" 
d="M271 138q-15 -89 -92 -132q-15 -6 -30 -6q-46 0 -102 56q-44 89 -44 203q0 133 57 243q32 41 91 41q47 0 74 -31q62 -72 62 -210q0 -68 -16 -164zM182 442q-9 -1 -21 9.5t-20 10.5q-6 0 -12 -3q-43 -50 -46 -145v-159l26 -42q18 -28 43 -24q57 67 57 191q0 86 -27 162z
M275 659l-23 -27l-198 88l32 64z" />
    <glyph glyph-name="oacute" unicode="&#xf3;" horiz-adv-x="326" 
d="M271 138q-15 -89 -92 -132q-15 -6 -30 -6q-46 0 -102 56q-44 89 -44 203q0 133 57 243q32 41 91 41q47 0 74 -31q62 -72 62 -210q0 -68 -16 -164zM182 442q-9 -1 -21 9.5t-20 10.5q-6 0 -12 -3q-43 -50 -46 -145v-159l26 -42q18 -28 43 -24q57 67 57 191q0 86 -27 162z
M275 720l-198 -88l-23 27l189 125z" />
    <glyph glyph-name="ocircumflex" unicode="&#xf4;" horiz-adv-x="326" 
d="M271 138q-15 -89 -92 -132q-15 -6 -30 -6q-46 0 -102 56q-44 89 -44 203q0 133 57 243q32 41 91 41q47 0 74 -31q62 -72 62 -210q0 -68 -16 -164zM182 442q-9 -1 -21 9.5t-20 10.5q-6 0 -12 -3q-43 -50 -46 -145v-159l26 -42q18 -28 43 -24q57 67 57 191q0 86 -27 162z
M230 641l-43 -15l-38 58l-40 -58l-44 20l75 113h23z" />
    <glyph glyph-name="otilde" unicode="&#xf5;" horiz-adv-x="326" 
d="M271 138q-15 -89 -92 -132q-15 -6 -30 -6q-46 0 -102 56q-44 89 -44 203q0 133 57 243q32 41 91 41q47 0 74 -31q62 -72 62 -210q0 -68 -16 -164zM182 442q-9 -1 -21 9.5t-20 10.5q-6 0 -12 -3q-43 -50 -46 -145v-159l26 -42q18 -28 43 -24q57 67 57 191q0 86 -27 162z
M267 721q-51 -92 -78 -89q-15 2 -43.5 25.5t-36.5 23.5q-17 0 -35 -29l-29 15q39 72 58 72q10 0 41 -27.5t43 -27.5q21 0 49 52z" />
    <glyph glyph-name="odieresis" unicode="&#xf6;" horiz-adv-x="325" 
d="M271 138q-15 -89 -92 -132q-15 -6 -30 -6q-46 0 -102 56q-44 89 -44 203q0 133 57 243q32 41 91 41q47 0 74 -31q62 -72 62 -210q0 -68 -16 -164zM182 442q-9 -1 -21 9.5t-20 10.5q-6 0 -12 -3q-43 -50 -46 -145v-159l26 -42q18 -28 43 -24q57 67 57 191q0 86 -27 162z
M233 644l-52 2l3 75h49v-77zM132 644h-52v77h52v-77z" />
    <glyph glyph-name="ugrave" unicode="&#xf9;" horiz-adv-x="311" 
d="M268 10q-10 -12 -28 -12q-4 0 -20 2q-12 1 -20 0q-4 2 -7 13t-10 11q-2 0 -6 -1q-15 -36 -68 -36q-20 0 -41 6q-32 13 -48 50q-10 33 -20 65v422q8 6 20 8q8 1 23 0q21 -1 25 -1q0 -20 7 -221q5 -133 3 -214q9 -30 45 -30q22 0 37 13q37 51 37 134q0 50 -14 97q9 29 9 69
q0 15 -1.5 44.5t-1.5 44.5q0 42 11 70q5 1 9 1q8 0 21.5 -5t21.5 -5q5 0 10 2zM252 662l-23 -27l-198 88l32 64z" />
    <glyph glyph-name="uacute" unicode="&#xfa;" horiz-adv-x="312" 
d="M268 10q-10 -12 -28 -12q-4 0 -20 2q-12 1 -20 0q-4 2 -7 13t-10 11q-2 0 -6 -1q-15 -36 -68 -36q-20 0 -41 6q-32 13 -48 50q-10 33 -20 65v422q8 6 20 8q8 1 23 0q21 -1 25 -1q0 -20 7 -221q5 -133 3 -214q9 -30 45 -30q22 0 37 13q37 51 37 134q0 50 -14 97q9 29 9 69
q0 15 -1.5 44.5t-1.5 44.5q0 42 11 70q5 1 9 1q8 0 21.5 -5t21.5 -5q5 0 10 2zM275 720l-198 -88l-23 27l189 125z" />
    <glyph glyph-name="ucircumflex" unicode="&#xfb;" horiz-adv-x="311" 
d="M268 10q-10 -12 -28 -12q-4 0 -20 2q-12 1 -20 0q-4 2 -7 13t-10 11q-2 0 -6 -1q-15 -36 -68 -36q-20 0 -41 6q-32 13 -48 50q-10 33 -20 65v422q8 6 20 8q8 1 23 0q21 -1 25 -1q0 -20 7 -221q5 -133 3 -214q9 -30 45 -30q22 0 37 13q37 51 37 134q0 50 -14 97q9 29 9 69
q0 15 -1.5 44.5t-1.5 44.5q0 42 11 70q5 1 9 1q8 0 21.5 -5t21.5 -5q5 0 10 2zM219 644l-43 -15l-38 58l-40 -58l-44 20l75 113h23z" />
    <glyph glyph-name="udieresis" unicode="&#xfc;" horiz-adv-x="311" 
d="M268 10q-10 -12 -28 -12q-4 0 -20 2q-12 1 -20 0q-4 2 -7 13t-10 11q-2 0 -6 -1q-15 -36 -68 -36q-20 0 -41 6q-32 13 -48 50q-10 33 -20 65v422q8 6 20 8q8 1 23 0q21 -1 25 -1q0 -20 7 -221q5 -133 3 -214q9 -30 45 -30q22 0 37 13q37 51 37 134q0 50 -14 97q9 29 9 69
q0 15 -1.5 44.5t-1.5 44.5q0 42 11 70q5 1 9 1q8 0 21.5 -5t21.5 -5q5 0 10 2zM219 644l-52 2l3 75h49v-77zM118 644h-52v77h52v-77z" />
    <glyph glyph-name="dotlessi" unicode="&#x131;" horiz-adv-x="122" 
d="M76 6q-8 -6 -22 -8q-10 -1 -26 0q-21 1 -22 1q-7 90 -7 257v275q30 12 77 0v-525z" />
    <glyph glyph-name="circumflex" unicode="&#x2c6;" horiz-adv-x="245" 
d="M207 641l-43 -15l-38 58l-40 -58l-44 20l75 113h23z" />
    <glyph glyph-name="tilde" unicode="&#x2dc;" horiz-adv-x="309" 
d="M267 721q-51 -92 -78 -89q-15 2 -43.5 25.5t-36.5 23.5q-17 0 -35 -29l-29 15q39 72 58 72q10 0 41 -27.5t43 -27.5q21 0 49 52z" />
    <glyph glyph-name="emdash" unicode="&#x2014;" horiz-adv-x="5160" 
d="M5078 306h-2191q-58 -14 -144 -55.5t-145 -84.5q-154 85 -169 93q-76 37 -141 47h-1535q-9 0 -204.5 -7.5t-299.5 -7.5q-86 0 -121 5q-19 2 -31.5 15.5t-12.5 29.5q0 31 44 40l630 -15q460 -11 877 -11q326 0 633 6q52 1 162 58q95 48 168 102q213 -155 365 -155
q-1 -2 -9 -2h334q1460 1 1210 1q194 0 303 4q164 5 277 7q42 1 42 -28q0 -15 -13 -28.5t-29 -13.5z" />
    <glyph glyph-name="quoteleft" unicode="&#x2018;" horiz-adv-x="119" 
d="M78 578l-71 7v96l69 124z" />
    <glyph glyph-name="quoteright" unicode="&#x2019;" horiz-adv-x="115" 
d="M76 703l-68 -123l-2 226l70 -7v-96z" />
    <glyph glyph-name="quotedblleft" unicode="&#x201c;" horiz-adv-x="215" 
d="M173 593l-70 7v96l68 123zM76 593l-71 7v95l69 124z" />
    <glyph glyph-name="quotedblright" unicode="&#x201d;" horiz-adv-x="213" 
d="M174 710l-68 -124l-2 226l70 -7v-95zM76 710l-68 -124l-2 226l70 -7v-95z" />
    <glyph glyph-name="bullet" unicode="&#x2022;" horiz-adv-x="1894" 
d="M1841 652q-12 -42 -20 -117q9 -8 9 -18q0 -8 -7 -15l-33 -56q-25 18 -75 52q0 7 -4 21q-14 -9 -30 -28q-14 -15 -27 -30q-32 28 -81 59q10 22 13 56q2 30 4 59q-1 3 -4.5 10.5t-3.5 10.5q0 6 5 10l47 67q15 -9 38 -29q26 -24 37 -32q-8 -18 -12 -48q-3 -26 -7 -52
q7 -6 14 -13t13 -4q0 11 4 36t4 38q0 21 -9 35l72 51l4 -2zM1566 677q-21 -95 -22 -173l-32 -42q-20 -24 -44 -25q-52 -14 -119 -27q-3 3 -3 8q19 8 39 18.5t31 27.5q13 29 13 38q0 7 -3 13q-21 -13 -61 -56q-10 5 -75 61q9 55 12 140q3 72 5 144l4 5q22 -4 58 -3q44 1 57 0
q0 -21 -5 -63.5t-5 -63.5l2 -3q17 21 51 65q31 -23 97 -64zM1279 568l-37 -100l-90 54q6 56 7 145l2 144q52 -1 115 5l3 -2l-15 -230zM1577 340q-4 2 -5 -1q-4 -10 -4 -72q0 -22 -6 -30q1 6 -1 8q-8 -11 -13 -46q-1 -11 -6 -32q-3 -25 -19 -71q-5 -3 -10 -14q-4 8 -15 20
q-5 3 -15 7q2 4 -10 14q-9 7 -5 15q23 53 33 89q2 1 5 3q8 23 20 122q14 7 18 30q4 28 9.5 35.5t14.5 0.5q5 -3 8 -27q5 -42 1 -51zM1340 326l-2 2q1 -3 2 -3q0 2 -1 2zM1341 317q0 -1 -2 -2q1 0 2 -1q-3 0 -2 1l2 4q1 -2 0 -2zM1338 306q-4 1 -4 2q1 4 3 -1zM1339 301
q-1 0 -1 2v0q2 -1 1 -2zM1114 698q-8 -43 -10 -118q11 -8 11 -19q0 -7 -6 -14l-27 -58q-27 14 -80 44q-1 7 -6 20q-13 -10 -27 -30q-12 -16 -24 -33q-34 26 -86 52q6 16 7 37q1 14 0 39q-1 28 -1 40q-1 2 -6 11q-4 6 -4 10q0 5 4 9l41 72q15 -8 40 -26q28 -21 40 -28
q-6 -19 -7 -50l-2 -52q22 -15 23 -15q3 0 5 1q1 -10 1 61q0 30 -12 48l66 57l4 -2zM1444 374q-10 -15 -40 -23q-52 -12 -52 -13q-4 -1 -14.5 -11t-10.5 -13q0 -2 2 -5.5t2 -5.5q0 -3 -2 -5q-2 -1 7 -4q-1 0 -3 -2q0 -3 5 -3q-4 -1 -2 -4t1 -4q-4 1 -10 2q-11 -1 0 -6
q2 1 5 0q1 0 4 -1q-1 -1 -1 -2q-1 2 -3 3q-4 1 -6 -1q3 -23 29 -50q9 -10 13 -10q-1 -6 2 -8q35 -19 42 -34q9 -20 -11 -40q-13 -14 -45 -63q-5 -9 -21 -10q-8 -1 -48 -10q-29 -6 -48 -3q-20 3 -38.5 18.5t-18.5 31.5q0 21 21 21q43 0 54 -12q2 3 20 3q3 0 4 4q3 -5 6 -4
q10 2 14 2q-2 -1 -3 -2q1 -2 5 -4q3 0 5 7q18 -7 22 -2q3 3 -5 3l7 4q1 -4 -2 -8t-3 -5q0 -3 5 -4t16 -2q2 4 11 7q-2 3 -2 6q0 4 3 9.5t3 7.5q0 3 -7 5q-10 2 -19 -10q-3 3 -6 3t-8.5 -3t-8.5 -3q-4 0 -7 3q7 0 17 6q1 2 -3 3.5t-4 3.5q-5 -1 -5 -4q-8 9 -6 11q14 5 33 22
q8 16 -9 32q-7 11 -26 27q-7 0 -15 2q-2 3 -31 37q-19 22 -22 40q-6 48 69 66q8 2 45 1q29 -1 40 9q21 18 40 16q7 -1 11.5 -9.5t2.5 -12.5zM1518 22q-2 -3 -5 -3t-9.5 3.5t-10.5 3.5q-5 -1 -5 -3q-1 -7 9 -8q0 -1 1 -5q-1 -2 -3 -4q-1 0 -7 4q-3 2 -7 0q1 -1 0 -10l-5 1
q2 3 -1 5q-8 5 -12 -1q1 -4 0 -10q-4 -5 -7 0q-2 2 -1 6v7q-1 3 -5 2q-3 0 -5 -6t-4 -6l-4 2q-3 3 0 6q4 4 5 4q1 7 -12 9q-4 1 -8.5 -7t-10.5 -7q-3 2 -4 2q8 5 18 15q2 6 -9 14q3 3 7 11q-1 4 -4 4q-1 0 -8 -3q-4 -2 -7 0l1 4q7 -3 14 1l-3 6q13 6 12 16q9 -4 12 2
q-1 2 -4 3l2 4q2 2 6 -1.5t6 -3.5t3 2q3 2 -0.5 9t-1.5 7q4 0 4 -4v-7q1 -5 3 -6q4 -2 7 0q-1 6 1.5 7.5t5.5 1.5q10 0 8 -18q4 1 4 4q2 -1 6 -2.5t2 -4.5q-4 -3 -4 -4q2 -5 4 -5q1 0 5.5 2.5t7.5 0.5q4 -3 1 -5q-13 -8 -13 -10l2 -4q8 7 11 1q2 -4 -2 -5q-3 -1 -8 0
q-2 0 -3 -3q2 -7 10 -7q12 -1 15 -3t0 -4zM1117 385q-1 1 -1 2zM1106 386q-2 0 -2 1l1 1zM1097.5 386.5q-1.5 -0.5 0 0t0 0zM1078 390q-2 1 -1 2q1 0 1 -2zM1182 374q0 -1 -26 -32q-16 -19 -47 -19q-23 0 -55 11q-8 2 -17 4.5t-11 10.5q-1 1 3 5q3 3 -1 4.5t-10 3.5
q-12 11 -12 23q0 15 21 15q14 0 23 -10q1 1 2 1q-1 5 2 5q0 1 3 -9q4 2 3 5q3 -5 5 -6q2 -3 5 1q-1 -7 1 -8q2 1 4 4q1 -3 4 -6q1 1 3 4q2 -4 5 -4q2 1 3 2q0 -2 2 -3q3 -1 11 2l-2 4q0 -4 5 -5q2 1 3 4q0 -3 2 -5q4 0 10 6q-1 -3 4 -4q5 2 4 8q-3 2 -1 5q0 -2 2 -5
q4 -1 7 2.5t6 7.5q0 -2 2 -3q2 0 3 3l1 3q15 4 26 -4t11 -14q0 -4 -4 -7zM1400 29q0 -2 -3 -4q-1 1 -1 3q2 5 4 1zM1386 3q0 -2 -7 0q4 5 7 5q1 0 0 -5zM1286 134q-7 -3 -17 -2q-33 -2 -46 -13q-2 3 -2 5q0 3 4.5 8t5 7.5t3.5 0.5q1 -2 2 -5q3 1 33 -3q6 1 17 2zM838 697
q-13 -96 -7 -174l-28 -44q-18 -25 -42 -29q-51 -18 -117 -37q-3 4 -3 8q18 10 37.5 22t27.5 29q10 29 10 37q0 9 -4 16q-19 -16 -56 -61q-10 4 -80 54q3 31 3 68q0 40 -4 108q-4 82 -5 108l3 5q23 -1 58 3q44 4 57 5q2 -22 0 -65q-1 -42 1 -63l2 -3l45 69q33 -20 102 -56z
M1182 201q2 -7 -14 -24q2 -8 -1 -17q-3 1 -7 -2q-1 -4 4 -5l6 3q-14 -8 -3 -21q-2 0 -5 -1q0 -2 4 -5t3 -5q-6 -13 -42 -16q-25 -3 -76 -6q-10 0 -30.5 -5t-30.5 -5q-9 0 -16.5 3t-10.5 20q-4 21 -10 29t-7 47q0 49 10 78q0 6 1 18q5 21 10 43t14 38q5 8 13 8q5 0 8 -9
q4 -12 2 -35q-2 -24 0 -35q2 0 52 -11q32 -6 53 -6q11 0 22 2q1 -2 1 -5q-4 -4 -4 -5q2 -5 1 -6q-8 -10 -13 -9q-31 3 -39 2t-12.5 -14.5t-9.5 -13.5q-46 1 -53 26q0 1 -2 1q-2 -1 -3 -2q-7 -28 2 -40q9 -4 28 -14q10 -5 29 -9q25 -4 30 -5q-3 -5 1 -6q2 1 4 4q-1 -5 2 -10
q1 0 5 9q1 -1 -1 -7q0 -1 3 -0.5t6 -3t5 -3.5q8 0 23 5q-3 3 -1 5q2 -5 4 -3q5 3 9 12.5t7 11.5q12 6 19 6t10 -7zM550 550l-37 -87l-9 -1q-53 29 -90 42q-5 4 -4 11l2 13q-3 21 -4 58q0 41 -2 57q-5 6 -19 5l-4 30q-1 17 5 27q15 1 15 7l-2 29q-1 17 5 25q37 10 109 35
l6 -5q-2 -40 5 -82q2 -3 9.5 -2.5t9.5 -2.5l3 -53q-3 -4 -12.5 -4t-9.5 -8q0 -19 2 -58q3 -26 22 -36zM917 384q0 -13 -6 -31q-8 -25 -9 -30q2 -22 -4 -61q-9 -39 -36 -114q-17 -35 -25 -34q-24 5 -45 39q-24 40 -39 49q5 9 5 17q0 11 -9 28q-10 21 -11 29q-12 52 -12 56
q0 15 7 27q5 7 13 -1q16 -13 30 -44q15 -35 27 -47q11 19 42 53q3 8 12 18.5t16 33.5t17 32q5 4 14 3t11 -8t2 -15zM705 86q3 0 -28 1q-3 0 -4.5 6t-2.5 7q-23 31 -25 34q-12 19 -15 38q-2 4 -7 13q-16 31 -16 79q0 10 -3 32.5t-3 33.5q0 31 20 44q3 2 7 2q19 0 28 -36
q8 -42 17 -84q10 -49 30 -81q9 -15 19 -29q11 -18 11 -31q0 -10 -6 -19t-22 -10zM379 538q-41 -86 -161 -81q-42 1 -80 24q-41 24 -58 62l-13 74q9 24 20.5 49.5t35.5 31.5q8 6 25 14q-1 -76 28 -111l14 -12l3 2q-7 43 -33 125l1 5q35 23 105 68q23 -14 93 -16q2 -10 -1 -37
q-3 -23 1 -37q-2 -3 -8 -4h-8q-3 -1 -3 -7q2 -41 12 -124q2 -3 4 -3q-3 0 13 7q3 6 9 7q1 -12 1 -37zM603 60q-5 0 -16 4.5t-17 4.5q-7 0 -10.5 -3.5t-2.5 -15t-3 -12.5q-15 -2 -30 -5q-17 -2 -29 5q-9 4 -19 4q-18 0 -36 -17.5t-30 -17.5q-6 0 -12 5q-20 16 -25 52
q-3 33 -5 65q-1 3 2 8t8 3q4 17 3 46q-2 34 0 47q1 39 14 115q4 15 19 15q6 0 8 -5q11 -18 21 -36q11 -21 15 -40q2 -12 2 -27q0 -10 -2 -31.5t-2 -31.5q0 -14 2 -26q26 4 46 4q63 0 96 -42q-1 -4 1 -10q18 -21 18 -41q0 -17 -16 -17zM1430 558q-1 10 2 28t3 24q0 12 -5 20
q-1 0 -9 6q-6 3 -9 0q-5 -57 -1 -71q3 0 8 -4t7 -4q3 0 4 1zM713 568q-2 7 0 37q1 23 -6 35q-1 0 -10 5q-6 3 -9 -1q0 -57 6 -71q1 0 10 -5q6 -3 9 0zM322 553q-5 44 -15 131q2 8 -5 11t-13 -1l8 -103q-8 -9 -25 -17q-22 -11 -28 -15v-4q31 -15 75 -5z" />
  </font>
</defs>
</svg>
